<svg class="pr_kin-header-logo-img" version="1.1" xmlns="http://www.w3.org/2000/svg" xmlns:xlink="http://www.w3.org/1999/xlink" x="0px" y="0px" viewBox="0 0 88 20" style="enable-background:new 0 0 88 20;" xml:space="preserve">
    <g>
      <g>
        <path d="M15.4,0.6V0.5H13c-0.1,0-0.1,0-0.2,0.1c0,0-4.7,4.7-5.8,5.8c-1,1-1.6,2.3-1.6,3.6S6,12.6,7,13.6c1.1,1.1,5.8,5.8,5.8,5.8
          s0.1,0.1,0.2,0.1h2.4c0.1,0,0.1-0.1,0-0.1c0,0-5.9-6-6.8-6.8C7.8,11.8,7.4,11,7.4,10c0-0.9,0.4-1.8,1.2-2.6
          C9.5,6.6,15.4,0.6,15.4,0.6z"></path>
        <path d="M78,0c-5.5,0-10,4.5-10,10s4.5,10,10,10s10-4.5,10-10S83.5,0,78,0z M78,18.2c-4.4,0-8-3.7-8-8.2s3.6-8.2,8-8.2
          s8,3.7,8,8.2S82.4,18.2,78,18.2z"></path>
        <path d="M22.5,0.5h-1.8c-0.1,0-0.1,0-0.1,0.1v18.8c0,0.1,0,0.1,0.1,0.1h1.8c0.1,0,0.1,0,0.1-0.1V0.6L22.5,0.5z"></path>
        <path d="M1.9,0.5H0.1C0,0.5,0,0.6,0,0.6v18.8c0,0.1,0,0.1,0.1,0.1h1.8c0.1,0,0.1,0,0.1-0.1V0.6L1.9,0.5z"></path>
        <path d="M47.5,0.5h-1.8c-0.1,0-0.1,0-0.1,0.1v15.1c0,1.1-0.6,2-1.6,2.1s-1.8-0.7-2.2-1.7l-5.3-13c-0.7-1.7-2.2-3-4-2.9
          c-2,0.1-3.6,1.7-3.6,4.1v15.1c0,0.1,0,0.1,0.1,0.1h1.8c0.1,0,0.1,0,0.1-0.1V4.2c0-1.1,0.5-2,1.6-2.1c1-0.1,1.8,0.7,2.2,1.7l5.3,13
          c0.7,1.7,2.2,3,4,2.9c2-0.1,3.6-1.7,3.6-4.1v-15C47.6,0.6,47.6,0.5,47.5,0.5z"></path>
        <path d="M68.2,0.5H50.5c-0.1,0-0.1,0-0.1,0.1v1.5c0,0.1,0,0.1,0.1,0.1H58v17.2c0,0.1,0,0.1,0.1,0.1h1.8c0.1,0,0.1,0,0.1-0.1V2.2
          h6.5C67.7,2.2,68.2,1.1,68.2,0.5C68.3,0.6,68.2,0.5,68.2,0.5z"></path>
      </g>
    </g>
</svg>